<svg width="400" height="200" viewBox="0 0 400 200" fill="none" xmlns="http://www.w3.org/2000/svg">
<rect width="400" height="200" fill="#25D366"/>
<text x="200" y="80" font-family="Arial, sans-serif" font-size="24" font-weight="bold" fill="white" text-anchor="middle">WhatsApp Bot AI</text>
<text x="200" y="110" font-family="Arial, sans-serif" font-size="14" fill="white" text-anchor="middle">Bot Inteligente</text>
<text x="200" y="130" font-family="Arial, sans-serif" font-size="14" fill="white" text-anchor="middle">Interface de Chat</text>
<circle cx="340" cy="60" r="20" fill="#F59E0B"/>
<svg x="330" y="50" width="20" height="20" viewBox="0 0 24 24" fill="white">
<path d="M20 2H4c-1.1 0-1.99.9-1.99 2L2 22l4-4h14c1.1 0 2-.9 2-2V4c0-1.1-.9-2-2-2zm-2 12H6v-2h12v2zm0-3H6V9h12v2zm0-3H6V6h12v2z"/>
</svg>
</svg>